<svg xmlns="http://www.w3.org/2000/svg" width="32" height="32" viewBox="0 0 32 32">
  <rect width="32" height="32" rx="7" fill="#3FA34D"/>
  <g transform="translate(3.2, 5.3) scale(0.102)">
    <path fill="white" d="M54.83,143.26c-5.03-1.96-9.38-4.78-13.06-8.46-3.68-3.68-6.53-8.03-8.56-13.06-2.02-5.03-3.04-10.61-3.04-16.74s1.01-11.71,3.04-16.74c2.02-5.03,4.88-9.38,8.56-13.06s8.03-6.5,13.06-8.46c4.61-1.8,9.64-2.78,15.09-2.92l26.66.15,11.78-25.56h-38.44c-10.06,0-19.32,1.63-27.78,4.88-8.46,3.25-15.85,7.88-22.17,13.89-6.32,6.01-11.22,13.06-14.72,21.16-3.5,8.1-5.24,16.99-5.24,26.68s1.75,18.58,5.24,26.68c3.5,8.1,8.37,15.15,14.63,21.16,6.26,6.01,13.64,10.64,22.17,13.89,2.04.78,4.12,1.45,6.25,2.04l11.08-24.04c-1.55-.4-3.07-.88-4.54-1.46Z"/>
    <path fill="white" d="M172.01,0h-38.6l-7.54,16.36h0l-14.55,31.58h0l-41.22,89.47h0l-14.44,31.34h0l-.05.1h42.58l15.05-36.18h78.28l14.99,36.18h41.01L172.01,0ZM125.58,103.01l26.88-64.63,26.77,64.63h-53.65Z"/>
  </g>
</svg>
